<svg width="64" height="64" viewBox="0 0 64 64" fill="none" xmlns="http://www.w3.org/2000/svg">
<path d="M29.1776 3.86448C30.5737 1.95292 33.4263 1.95292 34.8224 3.86448C35.9125 5.35707 37.9763 5.74286 39.5319 4.74485C41.5243 3.4667 44.1842 4.49717 44.7955 6.78397C45.2728 8.56956 47.0579 9.67482 48.869 9.30617C51.1885 8.83405 53.2966 10.7558 53.0405 13.109C52.8406 14.9465 54.1058 16.6219 55.9278 16.9324C58.2613 17.3301 59.5328 19.8836 58.4439 21.9854C57.5937 23.6265 58.1683 25.6459 59.7551 26.5936C61.7873 27.8074 62.0505 30.6478 60.2759 32.2143C58.8903 33.4375 58.6966 35.5281 59.8338 36.985C61.2904 38.8509 60.5097 41.5946 58.2891 42.4143C56.5551 43.0543 55.6193 44.9337 56.1535 46.7031C56.8376 48.9692 55.1185 51.2456 52.7518 51.2077C50.9037 51.1782 49.3521 52.5926 49.2111 54.4355C49.0304 56.7957 46.6051 58.2974 44.4118 57.4071C42.6992 56.7119 40.7415 57.4704 39.9442 59.1378C38.9231 61.2734 36.1191 61.7976 34.3956 60.1751C33.0498 58.9082 30.9502 58.9082 29.6044 60.1751C27.8809 61.7976 25.0769 61.2734 24.0558 59.1378C23.2585 57.4704 21.3008 56.7119 19.5882 57.4071C17.3949 58.2974 14.9696 56.7957 14.7889 54.4355C14.6478 52.5926 13.0963 51.1782 11.2482 51.2077C8.88145 51.2456 7.16238 48.9692 7.84651 46.7031C8.38069 44.9337 7.44485 43.0543 5.71092 42.4143C3.49027 41.5946 2.70963 38.8509 4.16615 36.985C5.30345 35.5281 5.10973 33.4375 3.72409 32.2143C1.9495 30.6478 2.2127 27.8074 4.24492 26.5936C5.83173 25.6459 6.40629 23.6265 5.55607 21.9854C4.4672 19.8836 5.73871 17.3301 8.07216 16.9324C9.89417 16.6219 11.1594 14.9465 10.9595 13.109C10.7034 10.7558 12.8115 8.83405 15.131 9.30617C16.9421 9.67482 18.7272 8.56956 19.2045 6.78397C19.8158 4.49717 22.4757 3.4667 24.4681 4.74485C26.0237 5.74286 28.0875 5.35707 29.1776 3.86448Z" fill="#26BE7A"/>
</svg>
