<svg width="32" height="20" viewBox="0 0 32 20" fill="none" xmlns="http://www.w3.org/2000/svg">
<path d="M14.5 8.5L17.5 11.5M17.5 8.5L14.5 11.5M22 10C22 10.7879 21.8448 11.5681 21.5433 12.2961C21.2417 13.0241 20.7998 13.6855 20.2426 14.2426C19.6855 14.7998 19.0241 15.2417 18.2961 15.5433C17.5681 15.8448 16.7879 16 16 16C15.2121 16 14.4319 15.8448 13.7039 15.5433C12.9759 15.2417 12.3145 14.7998 11.7574 14.2426C11.2002 13.6855 10.7583 13.0241 10.4567 12.2961C10.1552 11.5681 10 10.7879 10 10C10 8.4087 10.6321 6.88258 11.7574 5.75736C12.8826 4.63214 14.4087 4 16 4C17.5913 4 19.1174 4.63214 20.2426 5.75736C21.3679 6.88258 22 8.4087 22 10Z" stroke="#A6A6A6" stroke-width="1.5" stroke-linecap="round" stroke-linejoin="round"/>
</svg>


