<svg width="24" height="24" viewBox="0 0 24 24" fill="none" xmlns="http://www.w3.org/2000/svg">
<path d="M10.2274 13.7476C9.37824 12.7486 8.74279 11.5935 8.32101 10.2823C7.89922 8.97115 7.77026 7.59701 7.93411 6.15992C7.94936 5.97197 8.02471 5.82043 8.16017 5.7053C8.29562 5.59016 8.45733 5.54022 8.64527 5.55546L10.7812 5.75235C10.9535 5.76632 11.0961 5.83109 11.2089 5.94666C11.3217 6.06222 11.3832 6.20318 11.3933 6.36954L11.5279 8.79251C11.5346 8.90341 11.5185 9.00458 11.4796 9.09601C11.4406 9.18744 11.3788 9.26914 11.2942 9.3411L9.84647 10.5716C10.0183 10.9797 10.2185 11.3782 10.4471 11.7672C10.6757 12.1562 10.9411 12.5285 11.2433 12.8841C11.5455 13.2397 11.8702 13.5616 12.2173 13.8499C12.5644 14.1382 12.9255 14.4 13.3005 14.6354L14.7482 13.4049C14.8329 13.3329 14.9235 13.2851 15.02 13.2614C15.1165 13.2377 15.2189 13.2381 15.3273 13.2626L17.6969 13.7859C17.8594 13.8227 17.9887 13.9061 18.0845 14.0361C18.1804 14.166 18.2214 14.3172 18.2074 14.4894L18.0575 16.6292C18.0422 16.8172 17.9669 16.9687 17.8314 17.0838C17.696 17.199 17.5343 17.2489 17.3463 17.2337C15.9088 17.1723 14.5752 16.8256 13.3455 16.1938C12.1159 15.562 11.0765 14.7466 10.2274 13.7476Z" fill="#C3C3C3"/>
</svg>