<svg width="21" height="21" viewBox="0 0 21 21" fill="none" xmlns="http://www.w3.org/2000/svg">
<g clip-path="url(#clip0_1028_511)">
<path d="M10.25 12.8125C11.6652 12.8125 12.8125 11.6652 12.8125 10.25C12.8125 8.83477 11.6652 7.6875 10.25 7.6875C8.83477 7.6875 7.6875 8.83477 7.6875 10.25C7.6875 11.6652 8.83477 12.8125 10.25 12.8125Z" stroke="#BFB2FF" stroke-width="2" stroke-linecap="round" stroke-linejoin="round"/>
<path d="M16.5709 12.8125C16.4572 13.0701 16.4233 13.3559 16.4735 13.633C16.5238 13.9101 16.6559 14.1658 16.8528 14.3671L16.904 14.4183C17.0629 14.577 17.1889 14.7654 17.2748 14.9728C17.3608 15.1802 17.4051 15.4025 17.4051 15.627C17.4051 15.8515 17.3608 16.0738 17.2748 16.2812C17.1889 16.4886 17.0629 16.677 16.904 16.8356C16.7454 16.9945 16.557 17.1205 16.3496 17.2064C16.1422 17.2924 15.9199 17.3367 15.6954 17.3367C15.4709 17.3367 15.2486 17.2924 15.0412 17.2064C14.8338 17.1205 14.6454 16.9945 14.4867 16.8356L14.4355 16.7844C14.2342 16.5875 13.9785 16.4554 13.7014 16.4051C13.4243 16.3549 13.1385 16.3888 12.8809 16.5025C12.6283 16.6108 12.4128 16.7906 12.2611 17.0197C12.1093 17.2489 12.0278 17.5174 12.0267 17.7923V17.9375C12.0267 18.3906 11.8468 18.8251 11.5264 19.1455C11.206 19.4659 10.7715 19.6458 10.3184 19.6458C9.86534 19.6458 9.43082 19.4659 9.11044 19.1455C8.79007 18.8251 8.61008 18.3906 8.61008 17.9375V17.8606C8.60347 17.5779 8.51195 17.3037 8.34743 17.0737C8.18291 16.8437 7.953 16.6685 7.68758 16.5708C7.42995 16.4571 7.14417 16.4232 6.86708 16.4735C6.58999 16.5237 6.33431 16.6558 6.133 16.8527L6.08175 16.904C5.92309 17.0628 5.73468 17.1888 5.52729 17.2748C5.3199 17.3607 5.0976 17.405 4.8731 17.405C4.6486 17.405 4.4263 17.3607 4.21891 17.2748C4.01152 17.1888 3.82311 17.0628 3.66446 16.904C3.50562 16.7453 3.37962 16.5569 3.29365 16.3495C3.20768 16.1421 3.16342 15.9198 3.16342 15.6953C3.16342 15.4708 3.20768 15.2485 3.29365 15.0411C3.37962 14.8337 3.50562 14.6453 3.66446 14.4867L3.71571 14.4354C3.91262 14.2341 4.04472 13.9784 4.09496 13.7013C4.1452 13.4243 4.11128 13.1385 3.99758 12.8808C3.8893 12.6282 3.70952 12.4127 3.48035 12.261C3.25119 12.1092 2.98265 12.0278 2.70779 12.0267H2.56258C2.1095 12.0267 1.67498 11.8467 1.35461 11.5263C1.03423 11.2059 0.854248 10.7714 0.854248 10.3183C0.854248 9.86526 1.03423 9.43074 1.35461 9.11036C1.67498 8.78999 2.1095 8.61 2.56258 8.61H2.63946C2.92218 8.60339 3.19638 8.51188 3.4264 8.34736C3.65642 8.18284 3.83163 7.95292 3.92925 7.6875C4.04295 7.42987 4.07687 7.14409 4.02663 6.867C3.97639 6.58991 3.84429 6.33423 3.64737 6.13292L3.59612 6.08167C3.43729 5.92301 3.31128 5.7346 3.22531 5.52722C3.13934 5.31983 3.09509 5.09753 3.09509 4.87303C3.09509 4.64852 3.13934 4.42622 3.22531 4.21884C3.31128 4.01145 3.43729 3.82304 3.59612 3.66438C3.75478 3.50555 3.94319 3.37954 4.15058 3.29357C4.35797 3.2076 4.58027 3.16335 4.80477 3.16335C5.02927 3.16335 5.25157 3.2076 5.45896 3.29357C5.66635 3.37954 5.85476 3.50555 6.01341 3.66438L6.06466 3.71563C6.26597 3.91255 6.52166 4.04464 6.79874 4.09488C7.07583 4.14512 7.36162 4.11121 7.61925 3.9975H7.68758C7.94022 3.88923 8.15568 3.70944 8.30744 3.48028C8.45921 3.25111 8.54065 2.98257 8.54175 2.70771V2.56251C8.54175 2.10943 8.72173 1.67491 9.04211 1.35453C9.36248 1.03416 9.797 0.854172 10.2501 0.854172C10.7032 0.854172 11.1377 1.03416 11.4581 1.35453C11.7784 1.67491 11.9584 2.10943 11.9584 2.56251V2.63938C11.9595 2.91424 12.041 3.18278 12.1927 3.41194C12.3445 3.64111 12.5599 3.82089 12.8126 3.92917C13.0702 4.04287 13.356 4.07679 13.6331 4.02655C13.9102 3.97631 14.1659 3.84421 14.3672 3.6473L14.4184 3.59605C14.5771 3.43721 14.7655 3.31121 14.9729 3.22524C15.1803 3.13927 15.4026 3.09502 15.6271 3.09502C15.8516 3.09502 16.0739 3.13927 16.2812 3.22524C16.4886 3.31121 16.677 3.43721 16.8357 3.59605C16.9945 3.7547 17.1205 3.94311 17.2065 4.1505C17.2925 4.35789 17.3367 4.58019 17.3367 4.80469C17.3367 5.02919 17.2925 5.25149 17.2065 5.45888C17.1205 5.66627 16.9945 5.85468 16.8357 6.01334L16.7845 6.06459C16.5875 6.2659 16.4554 6.52158 16.4052 6.79867C16.355 7.07576 16.3889 7.36154 16.5026 7.61917V7.6875C16.6109 7.94014 16.7906 8.1556 17.0198 8.30737C17.249 8.45913 17.5175 8.54058 17.7924 8.54167H17.9376C18.3907 8.54167 18.8252 8.72166 19.1456 9.04203C19.4659 9.36241 19.6459 9.79693 19.6459 10.25C19.6459 10.7031 19.4659 11.1376 19.1456 11.458C18.8252 11.7784 18.3907 11.9583 17.9376 11.9583H17.8607C17.5858 11.9594 17.3173 12.0409 17.0881 12.1926C16.859 12.3444 16.6792 12.5599 16.5709 12.8125V12.8125Z" stroke="#BFB2FF" stroke-width="2" stroke-linecap="round" stroke-linejoin="round"/>
</g>
<defs>
<clipPath id="clip0_1028_511">
<rect width="20.5" height="20.5" rx="4" fill="white"/>
</clipPath>
</defs>
</svg>
