<svg width="29" height="30" viewBox="0 0 29 30" fill="none" xmlns="http://www.w3.org/2000/svg">
<path d="M22.6803 21.2165C23.4104 23.1212 23.1723 24.899 21.966 26.5498C20.7596 28.2006 19.0612 29.026 16.8708 29.026C15.8231 29.026 14.8314 28.7562 13.8955 28.2165C12.9584 27.6768 12.2676 26.9625 11.8231 26.0736C9.18823 26.4546 7.006 25.7797 5.27648 24.0489C3.54569 22.3193 2.83902 20.1054 3.15648 17.407C2.2041 16.8673 1.47394 16.1295 0.966006 15.1936C0.45807 14.2565 0.204102 13.1847 0.204102 11.9784C0.204102 10.0419 1.08537 8.47808 2.84791 7.28697C4.60918 6.09713 6.33108 5.85141 8.01362 6.54982L10.966 7.78792C11.6009 6.80379 12.4422 6.00189 13.4898 5.38221C14.5374 4.76379 15.6644 4.42284 16.8708 4.35935V0.45459H19.7279V4.7403C20.9025 5.08951 21.8708 5.63681 22.6327 6.38221C23.3946 7.12887 24.0454 8.16887 24.585 9.5022H28.7755V12.3593H24.8708C24.8073 13.5657 24.4822 14.6927 23.8955 15.7403C23.3076 16.7879 22.5216 17.6292 21.5374 18.2641L22.6803 21.2165ZM10.8708 22.3593C10.8708 21.5022 10.9425 20.6692 11.086 19.8603C11.2282 19.0501 11.4422 18.2641 11.7279 17.5022C10.9977 17.8514 10.2117 18.0971 9.36981 18.2393C8.52918 18.3828 7.69616 18.4228 6.87077 18.3593C6.87077 19.5974 7.22759 20.5739 7.94124 21.2889C8.65616 22.0025 9.63267 22.3593 10.8708 22.3593ZM7.34696 14.5498C8.36283 14.5498 9.25997 14.4228 10.0384 14.1689C10.8155 13.9149 11.8231 13.407 13.0612 12.6451L7.34696 10.2641C6.42632 9.88316 5.64092 9.89078 4.99077 10.287C4.33934 10.6844 4.01362 11.3117 4.01362 12.1689C4.01362 12.9943 4.28347 13.5974 4.82315 13.9784C5.36283 14.3593 6.2041 14.5498 7.34696 14.5498ZM16.8708 25.2165C17.6644 25.2165 18.307 24.9384 18.7984 24.3822C19.2911 23.8273 19.4104 23.2482 19.1565 22.6451L16.585 16.1689C15.9819 17.1847 15.5139 18.2006 15.1812 19.2165C14.8473 20.2324 14.6803 21.153 14.6803 21.9784C14.6803 23.026 14.8631 23.8273 15.2289 24.3822C15.5933 24.9384 16.1406 25.2165 16.8708 25.2165ZM20.0136 14.6451C20.3311 14.3276 20.585 13.9066 20.7755 13.3822C20.966 12.859 21.0612 12.3117 21.0612 11.7403C21.0612 10.7244 20.7279 9.86728 20.0612 9.16887C19.3946 8.47046 18.5692 8.12125 17.585 8.12125C17.0136 8.12125 16.4739 8.21649 15.966 8.40697C15.4581 8.59744 15.0295 8.86729 14.6803 9.21649L18.3946 10.9308L20.0136 14.6451Z" fill="#BFB2FF"/>
</svg>
