<svg width="96" height="96" viewBox="0 0 96 96" fill="none" xmlns="http://www.w3.org/2000/svg">
<g clip-path="url(#clip0_362_12783)">
<path d="M88.0799 49.4999C88.0799 45.2009 85.6889 41.2799 81.9239 39.2819C82.0259 38.6669 82.0799 38.0789 82.0799 37.4999C82.0799 33.2009 79.6889 29.2799 75.9239 27.2819C76.0289 26.6669 76.0799 26.0759 76.0799 25.4999C76.0799 20.9819 73.4879 16.2989 69.9659 14.3099C69.2399 8.99692 64.3229 4.91992 58.4999 4.91992C53.8379 4.91992 49.8329 7.70392 47.9999 11.6879C46.1669 7.70692 42.1619 4.91992 37.4999 4.91992C31.5329 4.91992 26.6039 9.44392 26.0159 15.3359C22.2929 17.3489 19.9199 21.2699 19.9199 25.4999C19.9199 26.0759 19.9709 26.6639 20.0729 27.2819C16.3079 29.2799 13.9199 33.2009 13.9199 37.4999C13.9199 38.0759 13.9709 38.6639 14.0729 39.2819C10.3079 41.2799 7.91992 45.2009 7.91992 49.4999C7.91992 52.1249 8.82892 54.6659 10.4939 56.7299C9.78292 58.2719 9.41992 59.8709 9.41992 61.4999C9.41992 66.3299 12.4859 70.6499 16.9889 72.3149C16.9409 72.7259 16.9199 73.1189 16.9199 73.4999C16.9199 78.9959 20.8559 83.7179 26.1989 84.8009C27.2789 90.1439 32.0039 94.0829 37.4999 94.0829C42.1649 94.0829 46.1669 91.2959 47.9999 87.3149C48.5279 88.4609 49.2359 89.5049 50.0909 90.4139C50.1449 90.5339 50.1389 90.6689 50.2379 90.7679C50.3369 90.8669 50.4719 90.8609 50.5919 90.9149C52.6649 92.8649 55.4369 94.0829 58.4999 94.0829C63.9959 94.0829 68.7179 90.1469 69.8009 84.8009C75.1439 83.7209 79.0829 78.9959 79.0829 73.4999C79.0829 73.1159 79.0589 72.7289 79.0139 72.3149C83.5139 70.6469 86.5829 66.3299 86.5829 61.4999C86.5829 59.8739 86.2199 58.2749 85.5059 56.7299C87.1709 54.6689 88.0799 52.1279 88.0799 49.4999ZM40.0799 91.5149V86.1119C40.0799 82.5599 37.3229 79.9619 33.9929 77.1719C33.5339 76.7939 32.8529 76.8509 32.4719 77.3069C32.0879 77.7629 32.1479 78.4469 32.6069 78.8309C36.0539 81.7199 37.9229 83.7359 37.9229 86.1149V91.8779C37.7819 91.8839 37.6469 91.9199 37.5029 91.9199C32.8169 91.9199 28.8209 88.3949 28.2119 83.7239L28.1039 82.9019L27.2819 82.7939C22.6049 82.1819 19.0799 78.1859 19.0799 73.4999C19.0799 73.0919 19.1459 72.7019 19.2029 72.3059L24.4379 69.9869C24.9839 69.7469 25.2299 69.1079 24.9869 68.5619C24.7439 68.0129 24.1049 67.7579 23.5619 68.0099L18.1529 70.4099C14.2709 69.1679 11.5799 65.5679 11.5799 61.4999C11.5799 60.3389 11.8829 59.2019 12.3389 58.0799H20.9999C21.5969 58.0799 22.0799 57.5969 22.0799 56.9999C22.0799 56.4029 21.5969 55.9199 20.9999 55.9199H12.6509L12.5789 55.8419C10.9679 54.0809 10.0799 51.8309 10.0799 49.4999C10.0799 45.7649 12.2999 42.3809 15.7319 40.8749L16.5539 40.5149L16.3499 39.6419C16.1669 38.8709 16.0799 38.1689 16.0799 37.4999C16.0799 34.0409 17.9969 30.9029 21.0059 29.2619L26.1689 35.8199C27.1079 36.9599 27.9569 37.8839 28.8719 38.6069L23.2379 44.2409C22.8149 44.6639 22.8149 45.3449 23.2379 45.7679C23.4479 45.9749 23.7239 46.0799 23.9999 46.0799C24.2759 46.0799 24.5519 45.9749 24.7619 45.7649L30.7619 39.7649C30.7769 39.7499 30.7709 39.7229 30.7859 39.7079C31.4459 39.9389 32.1629 40.0829 32.9999 40.0829H38.9999C39.5969 40.0829 40.0799 39.5999 40.0799 39.0029C40.0799 38.4059 39.5969 37.9229 38.9999 37.9229H32.9999C31.0319 37.9229 29.9849 37.0529 27.8489 34.4669L22.3259 27.4469C22.1759 26.7569 22.0799 26.1059 22.0799 25.4999C22.0799 22.1129 23.9699 18.9869 26.9249 17.3279L29.3069 19.3199C29.5079 19.4909 29.7539 19.5719 29.9999 19.5719C30.3089 19.5719 30.6149 19.4399 30.8279 19.1849C31.2089 18.7289 31.1489 18.0479 30.6929 17.6639L28.1999 15.5789C28.6739 10.7819 32.6459 7.07992 37.4999 7.07992C42.6929 7.07992 46.9199 11.3069 46.9199 16.4999V29.0069C45.2339 26.9939 42.5969 25.9199 38.9999 25.9199C38.4029 25.9199 37.9199 26.4029 37.9199 26.9999C37.9199 27.5969 38.4029 28.0799 38.9999 28.0799C44.4779 28.0799 46.9199 30.5219 46.9199 35.9999V49.9769C44.6729 50.2049 43.4219 51.0509 42.3599 51.8459C40.9949 52.8749 39.9179 53.6819 36.2129 52.9409C35.6249 52.8149 35.0579 53.2019 34.9409 53.7869C34.8239 54.3689 35.2019 54.9419 35.7869 55.0559C36.9119 55.2809 37.8599 55.3769 38.6789 55.3769C41.2499 55.3769 42.5099 54.4319 43.6559 53.5709C44.5559 52.8959 45.3959 52.3199 46.9199 52.1249V67.8839L40.4999 67.9139C37.3679 67.9139 35.1869 66.1439 34.0229 62.6519C33.8369 62.0879 33.2189 61.7789 32.6579 61.9679C32.0939 62.1569 31.7849 62.7689 31.9739 63.3359C33.9269 69.1979 38.1539 70.0739 40.5029 70.0739L46.9199 70.0439V82.4939C46.9199 86.7929 44.0159 90.3839 40.0799 91.5149ZM78.3629 70.2179C76.5059 66.3719 73.6859 64.8599 68.8199 64.8839L65.8019 64.9199C62.1809 64.9199 61.0799 63.7709 61.0799 59.9999C61.0799 59.4029 60.5969 58.9199 59.9999 58.9199C59.4029 58.9199 58.9199 59.4029 58.9199 59.9999C58.9199 64.9619 60.9809 67.0799 65.8169 67.0799L68.8469 67.0439C68.9189 67.0409 68.9939 67.0409 69.0659 67.0409C73.3109 67.0409 75.2819 68.2889 76.7549 71.8619C76.8479 72.3959 76.9199 72.9359 76.9199 73.4969C76.9199 77.7449 74.0069 81.3989 69.9809 82.5029C69.7469 79.3169 68.7389 76.8749 66.7439 74.9999C66.3059 74.5919 65.6249 74.6099 65.2169 75.0449C64.8059 75.4829 64.8269 76.1639 65.2619 76.5719C66.9539 78.1649 67.7459 80.2319 67.8689 83.1239L67.7909 83.7209C67.1819 88.3949 63.1859 91.9169 58.4999 91.9169C56.2919 91.9169 54.2879 91.1219 52.6799 89.8469L57.7649 84.7619C58.1879 84.3389 58.1879 83.6549 57.7649 83.2319C57.3419 82.8089 56.6579 82.8089 56.2349 83.2319L51.1499 88.3199C49.8719 86.7119 49.0769 84.7079 49.0769 82.4999V80.9999C49.0769 76.2599 50.5889 76.0799 56.9969 76.0799C57.5939 76.0799 58.0769 75.5969 58.0769 74.9999C58.0769 74.4029 57.5939 73.9199 56.9969 73.9199C53.6519 73.9199 50.8739 73.9649 49.0769 75.2879V52.0139C53.4629 51.8819 54.8549 50.9699 56.0639 50.1509C56.9399 49.5509 57.6359 49.0799 59.9999 49.0799C60.5969 49.0799 61.0799 48.5969 61.0799 47.9999C61.0799 47.4029 60.5969 46.9199 59.9999 46.9199C56.9699 46.9199 55.8929 47.6549 54.8489 48.3629C53.8469 49.0439 52.7819 49.7399 49.0799 49.8539V24.9929C50.7659 27.0059 53.4029 28.0799 56.9999 28.0799C57.5969 28.0799 58.0799 27.5969 58.0799 26.9999C58.0799 26.4029 57.5969 25.9199 56.9999 25.9199C51.5219 25.9199 49.0799 23.4779 49.0799 17.9999V16.4999C49.0799 11.3069 53.3069 7.07992 58.4999 7.07992C62.9849 7.07992 66.7679 10.0079 67.6649 13.9199H59.9999C59.4029 13.9199 58.9199 14.4029 58.9199 14.9999C58.9199 15.5969 59.4029 16.0799 59.9999 16.0799H68.6639C71.6219 17.5889 73.9169 21.6719 73.9169 25.4999C73.9169 26.0729 73.8179 26.6909 73.6859 27.3329C70.8479 29.7299 68.4989 32.0219 68.0219 34.9199H59.9999C59.4029 34.9199 58.9199 35.4029 58.9199 35.9999C58.9199 36.5969 59.4029 37.0799 59.9999 37.0799H67.9199V44.9999C67.9199 45.5969 68.4029 46.0799 68.9999 46.0799C69.5969 46.0799 70.0799 45.5969 70.0799 44.9999V35.9999C70.0799 33.7529 71.7599 31.8209 74.8469 29.1839C77.9399 30.8039 79.9169 33.9869 79.9169 37.4999C79.9169 38.1719 79.8299 38.8709 79.6469 39.6389L79.4429 40.5149L80.2649 40.8749C83.6999 42.3779 85.9169 45.7649 85.9169 49.4999C85.9169 51.8309 85.0289 54.0839 83.4179 55.8389L83.3459 55.9169H74.9999C74.4029 55.9169 73.9199 56.3999 73.9199 56.9969C73.9199 57.5939 74.4029 58.0769 74.9999 58.0769H83.6609C84.1169 59.1959 84.4169 60.3389 84.4169 61.4969C84.4199 65.3849 81.9599 68.8319 78.3629 70.2179Z" stroke="url(#paint0_linear_362_12783)" stroke-width="3"/>
</g>
<defs>
<linearGradient id="paint0_linear_362_12783" x1="23.5" y1="21.5" x2="79" y2="78" gradientUnits="userSpaceOnUse">
<stop stop-color="#B70849"/>
<stop offset="1" stop-color="#662DFF"/>
</linearGradient>
<clipPath id="clip0_362_12783">
<rect width="96" height="96" fill="white"/>
</clipPath>
</defs>
</svg>
