<svg width="96" height="96" viewBox="0 0 96 96" fill="none" xmlns="http://www.w3.org/2000/svg">
<path d="M45.6774 60.6774L69 84C73.1421 88.1421 79.8579 88.1421 84 84C88.1421 79.8579 88.1421 73.1421 84 69L60.4931 45.4931M45.6774 60.6774L55.6619 48.5534C56.926 47.0184 58.6167 46.0528 60.4931 45.4931M45.6774 60.6774L27.0573 83.2876C25.1215 85.6382 22.2359 87 19.1907 87C13.5626 87 9 82.4374 9 76.8093C9 73.7641 10.3618 70.8785 12.7124 68.9427L40.0585 46.4224M60.4931 45.4931C62.6907 44.8377 65.1431 44.7392 67.4636 44.9353C67.97 44.9782 68.4825 45 69 45C78.9411 45 87 36.9411 87 27C87 24.3589 86.4312 21.8507 85.4094 19.5912L72.3047 32.6959C67.842 31.6714 64.3291 28.1585 63.3047 23.6959L76.4096 10.5909C74.1499 9.56894 71.6414 9 69 9C59.0589 9 51 17.0589 51 27C51 27.5175 51.0218 28.03 51.0647 28.5364C51.4283 32.8382 50.7791 37.5936 47.4466 40.3381L47.0383 40.6743M40.0585 46.4224L23.636 30H18L9 15L15 9L30 18V23.636L47.0383 40.6743M40.0585 46.4224L47.0383 40.6743M73.5 73.5L63 63M19.4689 76.5002H19.4989V76.5302H19.4689V76.5002Z" stroke="url(#paint0_linear_362_12782)" stroke-width="4" stroke-linecap="round" stroke-linejoin="round"/>
<defs>
<linearGradient id="paint0_linear_362_12782" x1="17.5" y1="14" x2="83" y2="87.5" gradientUnits="userSpaceOnUse">
<stop stop-color="#B70849"/>
<stop offset="1" stop-color="#662DFF"/>
</linearGradient>
</defs>
</svg>
