<svg width="12" height="12" viewBox="0 0 12 12" fill="none" xmlns="http://www.w3.org/2000/svg">
<path d="M4.21967 6.71967C3.92678 7.01256 3.92678 7.48744 4.21967 7.78033C4.51256 8.07322 4.98744 8.07322 5.28033 7.78033L10.5 2.56066V4.25C10.5 4.66421 10.8358 5 11.25 5C11.6642 5 12 4.66421 12 4.25V0.75C12 0.335786 11.6642 0 11.25 0H7.75C7.33579 0 7 0.335786 7 0.75C7 1.16421 7.33579 1.5 7.75 1.5H9.43934L4.21967 6.71967Z" fill="white"/>
<path d="M1.5 4.75C1.5 4.05964 2.05964 3.5 2.75 3.5H5C5.41421 3.5 5.75 3.16421 5.75 2.75C5.75 2.33579 5.41421 2 5 2H2.75C1.23122 2 0 3.23122 0 4.75V9.25C0 10.7688 1.23122 12 2.75 12H7.25C8.76878 12 10 10.7688 10 9.25V7C10 6.58579 9.66421 6.25 9.25 6.25C8.83579 6.25 8.5 6.58579 8.5 7V9.25C8.5 9.94036 7.94036 10.5 7.25 10.5H2.75C2.05964 10.5 1.5 9.94036 1.5 9.25V4.75Z" fill="white"/>
</svg>
