<svg width="48" height="48" viewBox="0 0 48 48" fill="none" xmlns="http://www.w3.org/2000/svg">
<path d="M24 31C28.42 31 32 27.42 32 23V12C32 7.58 28.42 4 24 4C19.58 4 16 7.58 16 12V23C16 27.42 19.58 31 24 31Z" stroke="white" stroke-width="3" stroke-linecap="round" stroke-linejoin="round"/>
<path d="M8.69995 19.3V22.7001C8.69995 31.14 15.56 38 24 38C32.44 38 39.2999 31.14 39.2999 22.7001V19.3" stroke="white" stroke-width="3" stroke-linecap="round" stroke-linejoin="round"/>
<path d="M21.22 12.86C23.02 12.2 24.98 12.2 26.78 12.86" stroke="white" stroke-width="3" stroke-linecap="round" stroke-linejoin="round"/>
<path d="M22.4 17.0999C23.46 16.8199 24.56 16.8199 25.62 17.0999" stroke="white" stroke-width="3" stroke-linecap="round" stroke-linejoin="round"/>
<path d="M24 38V44" stroke="white" stroke-width="3" stroke-linecap="round" stroke-linejoin="round"/>
</svg>