<svg width="25" height="24" viewBox="0 0 25 24" fill="none" xmlns="http://www.w3.org/2000/svg">
<path fill-rule="evenodd" clip-rule="evenodd" d="M16.5128 3.18529L16.791 3.53666C16.9312 3.71375 17.0102 3.8127 17.0747 3.88216C17.1094 3.91955 17.1277 3.9347 17.1344 3.93962C17.142 3.94214 17.1625 3.94773 17.206 3.95407C17.2951 3.96707 17.4155 3.97518 17.6358 3.98893L18.0739 4.01628C18.7566 4.05884 19.3545 4.09611 19.8094 4.19523C20.2912 4.3002 20.8154 4.51634 21.0937 5.07562C21.3686 5.62809 21.2345 6.17769 21.0393 6.63187C20.8528 7.06583 20.5341 7.58362 20.1669 8.18017L20.137 8.22872L19.9337 8.55894C19.8161 8.75005 19.7509 8.85708 19.7079 8.94111C19.6888 8.97852 19.6801 9.00021 19.676 9.01183C19.6725 9.02174 19.6722 9.02504 19.6722 9.02504C19.6722 9.02504 19.6715 9.02895 19.672 9.04069C19.6727 9.05422 19.675 9.07887 19.6827 9.12177C19.7 9.21739 19.7321 9.3422 19.7896 9.56233L19.8893 9.94348L19.9036 9.99806C20.0839 10.688 20.2397 11.2836 20.2936 11.7559C20.3493 12.2427 20.3254 12.8177 19.8945 13.2661C19.4544 13.724 18.8768 13.7539 18.3926 13.6962C17.9312 13.6412 17.3517 13.4805 16.6897 13.297L16.2647 13.1791C16.0511 13.1199 15.9338 13.088 15.845 13.0711C15.8081 13.0641 15.7876 13.0621 15.778 13.0616C15.7691 13.065 15.7502 13.0734 15.7173 13.0916C15.6382 13.1354 15.5367 13.2024 15.3522 13.3254L14.9851 13.5702C14.4134 13.9515 13.913 14.2853 13.4919 14.4817C13.05 14.6877 12.4918 14.8401 11.9306 14.5424C11.5724 14.3523 11.3618 14.057 11.2313 13.7415C8.9583 14.7007 7.10056 16.3482 6.45785 18.2415C6.34703 18.5679 6.02795 18.7768 5.68445 18.7477C5.34094 18.7187 5.06147 18.4592 5.00706 18.1188C4.06648 12.235 5.82342 8.68634 8.34737 6.75226C8.52253 6.35644 8.85439 6.09188 9.18303 5.89833C9.5843 5.662 10.1406 5.43974 10.776 5.18592C10.7941 5.17867 10.8123 5.1714 10.8306 5.1641L11.1836 5.02304C11.3886 4.94114 11.5005 4.89579 11.5811 4.85558C11.6207 4.83584 11.6385 4.82407 11.6449 4.81932C11.6497 4.81262 11.6624 4.7925 11.6839 4.74581C11.7235 4.65963 11.7677 4.5409 11.8457 4.32885L11.9805 3.96234C11.9872 3.94421 11.9938 3.92615 12.0004 3.90816C12.2438 3.24622 12.455 2.67208 12.6797 2.25845C12.9113 1.83223 13.2666 1.36855 13.8921 1.26829C14.5178 1.16801 15.0002 1.49761 15.3532 1.83026C15.6957 2.15303 16.0753 2.63254 16.5128 3.18529ZM8.65909 8.45939C7.23594 9.83019 6.13943 12.0495 6.25735 15.5665C7.42487 14.0993 9.13159 12.9511 10.9558 12.2345C10.9365 11.987 10.9201 11.7211 10.9029 11.44L10.8753 10.9905C10.8613 10.7633 10.8529 10.6347 10.8395 10.5385C10.8335 10.4953 10.828 10.4712 10.8244 10.4581C10.8213 10.4468 10.8194 10.4434 10.8194 10.4434C10.8194 10.4434 10.8179 10.4401 10.8117 10.4321C10.8043 10.4224 10.7892 10.4045 10.7594 10.375C10.6924 10.3086 10.5971 10.2274 10.4258 10.0825L10.0862 9.79552C9.55144 9.34358 9.08718 8.95123 8.77469 8.59719C8.73555 8.55284 8.69681 8.50692 8.65909 8.45939ZM12.5321 12.8381C12.5491 12.7244 12.54 12.605 12.5007 12.4886C12.4941 12.4691 12.4868 12.45 12.4788 12.4314C12.4491 12.135 12.4257 11.7639 12.3966 11.2917L12.3725 10.8985C12.3708 10.8706 12.3691 10.8426 12.3675 10.8144C12.3473 10.4696 12.3258 10.1037 12.1624 9.77515C11.9977 9.44413 11.7178 9.20899 11.4574 8.99021C11.4361 8.97236 11.415 8.95461 11.3941 8.93694L11.0981 8.68674C10.507 8.18714 10.1299 7.86584 9.8993 7.60459C9.78945 7.48014 9.74562 7.40448 9.72905 7.36579C9.72706 7.36114 9.72559 7.35732 9.72452 7.35429L9.7261 7.35241C9.74839 7.32627 9.80677 7.27179 9.94425 7.19082C10.2343 7.01998 10.6808 6.83927 11.3872 6.55701L11.7402 6.41596C11.7655 6.40586 11.7911 6.39573 11.8169 6.38551C12.1249 6.26367 12.4679 6.12794 12.7263 5.85905C12.9814 5.59364 13.1081 5.24576 13.2243 4.92659C13.2341 4.89971 13.2438 4.87303 13.2535 4.84663L13.3883 4.48011C13.6575 3.74818 13.8318 3.27988 13.9977 2.97457C14.059 2.86185 14.104 2.79998 14.1323 2.76741C14.1694 2.7895 14.2313 2.83415 14.3244 2.9219C14.5772 3.16006 14.8887 3.55042 15.3726 4.16167L15.6149 4.46774C15.6324 4.4898 15.65 4.51212 15.6676 4.5346C15.8775 4.80146 16.1065 5.09251 16.4317 5.26503C16.7612 5.4398 17.1295 5.46155 17.46 5.48106C17.4877 5.4827 17.5152 5.48432 17.5424 5.48602L17.9217 5.5097C18.6808 5.55708 19.1613 5.58921 19.4901 5.66085C19.6459 5.6948 19.7182 5.72829 19.7475 5.74608L19.7492 5.74716C19.7491 5.75036 19.7489 5.7544 19.7485 5.75937C19.7448 5.80138 19.7267 5.88703 19.6611 6.03965C19.5235 6.35998 19.2653 6.78316 18.8595 7.44251L18.6563 7.77273C18.6419 7.79606 18.6274 7.81951 18.6128 7.84311C18.4336 8.13236 18.2411 8.44308 18.1878 8.80888C18.135 9.172 18.2287 9.52629 18.3169 9.86022C18.3242 9.88752 18.3313 9.91468 18.3384 9.9417L18.4381 10.3229C18.6368 11.083 18.763 11.5734 18.8033 11.9261C18.8218 12.0874 18.8161 12.1734 18.8089 12.2149C18.7706 12.2198 18.6977 12.2219 18.57 12.2067C18.2367 12.167 17.7696 12.0397 17.0333 11.8356L16.6654 11.7336C16.6387 11.7263 16.6117 11.7187 16.5845 11.711C16.2662 11.6216 15.908 11.5209 15.5405 11.5798C15.1732 11.6387 14.8643 11.8462 14.5898 12.0307C14.5663 12.0465 14.543 12.0621 14.52 12.0774L14.2023 12.2893C13.5664 12.7134 13.1623 12.9803 12.8579 13.1222C12.7417 13.1764 12.6718 13.1972 12.6339 13.2046C12.6141 13.1673 12.582 13.0873 12.5494 12.9291C12.5434 12.8999 12.5376 12.8696 12.5321 12.8381ZM12.5961 13.2073C12.5961 13.2073 12.6016 13.2062 12.6097 13.2081C12.5997 13.2088 12.5961 13.2073 12.5961 13.2073ZM12.6466 13.2257C12.6518 13.2298 12.6539 13.2334 12.6539 13.2334C12.6539 13.2334 12.6511 13.2319 12.6466 13.2257ZM18.7989 12.2482C18.7989 12.2482 18.7997 12.2441 18.8034 12.2386C18.801 12.2459 18.7989 12.2482 18.7989 12.2482ZM18.8326 12.2107C18.8397 12.2064 18.8452 12.2057 18.8452 12.2057C18.8452 12.2057 18.8423 12.2083 18.8326 12.2107ZM14.168 2.73457C14.168 2.73457 14.1648 2.73781 14.1585 2.74085C14.1648 2.73552 14.168 2.73457 14.168 2.73457ZM14.0992 2.75031C14.0922 2.74941 14.0882 2.74731 14.0882 2.74731C14.0882 2.74731 14.0915 2.74721 14.0992 2.75031Z" fill="white"/>
<path d="M14.2192 16C14.2192 16 13.5865 17.3908 12.8065 17.8692C12.0265 18.3475 10.5 18.2808 10.5 18.2808C10.5 18.2808 11.8908 18.9135 12.3692 19.6935C12.8475 20.4735 12.7808 22 12.7808 22C12.7808 22 13.4135 20.6092 14.1935 20.1308C14.9735 19.6525 16.5 19.7192 16.5 19.7192C16.5 19.7192 15.1092 19.0865 14.6308 18.3065C14.1525 17.5265 14.2192 16 14.2192 16Z" fill="white" stroke="#333333" stroke-width="0.75" stroke-linejoin="round"/>
<path d="M17.0205 15C17.0205 15 17.4423 15.9272 17.9623 16.2461C18.4823 16.565 19.5 16.5205 19.5 16.5205C19.5 16.5205 18.5728 16.9423 18.2539 17.4623C17.935 17.9823 17.9795 19 17.9795 19C17.9795 19 17.5577 18.0728 17.0377 17.7539C16.5177 17.435 15.5 17.4795 15.5 17.4795C15.5 17.4795 16.4272 17.0577 16.7461 16.5377C17.065 16.0177 17.0205 15 17.0205 15Z" fill="white" stroke="#333333" stroke-width="0.75" stroke-linejoin="round"/>
</svg>
