<svg width="30" height="30" viewBox="0 0 30 30" fill="none" xmlns="http://www.w3.org/2000/svg">
<path d="M22.9308 21.2165C23.6609 23.1212 23.4228 24.899 22.2165 26.5498C21.0101 28.2006 19.3117 29.026 17.1213 29.026C16.0736 29.026 15.0819 28.7562 14.146 28.2165C13.2089 27.6768 12.5181 26.9625 12.0736 26.0736C9.43871 26.4546 7.25649 25.7797 5.52697 24.0489C3.79618 22.3193 3.08951 20.1054 3.40697 17.407C2.45459 16.8673 1.72443 16.1295 1.21649 15.1936C0.708558 14.2565 0.45459 13.1847 0.45459 11.9784C0.45459 10.0419 1.33586 8.47808 3.0984 7.28697C4.85967 6.09713 6.58157 5.85141 8.26411 6.54982L11.2165 7.78792C11.8514 6.80379 12.6927 6.00189 13.7403 5.38221C14.7879 4.76379 15.9149 4.42284 17.1213 4.35935V0.45459H19.9784V4.7403C21.153 5.08951 22.1212 5.63681 22.8832 6.38221C23.6451 7.12887 24.2958 8.16887 24.8355 9.5022H29.026V12.3593H25.1212C25.0578 13.5657 24.7327 14.6927 24.146 15.7403C23.5581 16.7879 22.772 17.6292 21.7879 18.2641L22.9308 21.2165ZM11.1213 22.3593C11.1213 21.5022 11.193 20.6692 11.3365 19.8603C11.4787 19.0501 11.6927 18.2641 11.9784 17.5022C11.2482 17.8514 10.4622 18.0971 9.6203 18.2393C8.77966 18.3828 7.94665 18.4228 7.12125 18.3593C7.12125 19.5974 7.47808 20.5739 8.19173 21.2889C8.90665 22.0025 9.88316 22.3593 11.1213 22.3593ZM7.59744 14.5498C8.61332 14.5498 9.51046 14.4228 10.2889 14.1689C11.066 13.9149 12.0736 13.407 13.3117 12.6451L7.59744 10.2641C6.67681 9.88316 5.89141 9.89078 5.24125 10.287C4.58983 10.6844 4.26411 11.3117 4.26411 12.1689C4.26411 12.9943 4.53395 13.5974 5.07364 13.9784C5.61332 14.3593 6.45459 14.5498 7.59744 14.5498ZM17.1213 25.2165C17.9149 25.2165 18.5574 24.9384 19.0489 24.3822C19.5416 23.8273 19.6609 23.2482 19.407 22.6451L16.8355 16.1689C16.2324 17.1847 15.7644 18.2006 15.4317 19.2165C15.0978 20.2324 14.9308 21.153 14.9308 21.9784C14.9308 23.026 15.1136 23.8273 15.4793 24.3822C15.8438 24.9384 16.3911 25.2165 17.1213 25.2165ZM20.2641 14.6451C20.5816 14.3276 20.8355 13.9066 21.026 13.3822C21.2165 12.859 21.3117 12.3117 21.3117 11.7403C21.3117 10.7244 20.9784 9.86728 20.3117 9.16887C19.6451 8.47046 18.8197 8.12125 17.8355 8.12125C17.2641 8.12125 16.7244 8.21649 16.2165 8.40697C15.7086 8.59744 15.28 8.86729 14.9308 9.21649L18.6451 10.9308L20.2641 14.6451Z" fill="url(#paint0_linear_624_11130)"/>
<defs>
<linearGradient id="paint0_linear_624_11130" x1="8.5" y1="5.5" x2="21.5" y2="29" gradientUnits="userSpaceOnUse">
<stop stop-color="#B70849"/>
<stop offset="1" stop-color="#662DFF"/>
</linearGradient>
</defs>
</svg>
