<svg width="400" height="360" viewBox="0 0 400 360" fill="none" xmlns="http://www.w3.org/2000/svg">
<g opacity="0.2">
<path d="M102.326 89.4269L146.634 114.65V165.096L102.326 190.319L58.0174 165.096V114.65L102.326 89.4269Z" fill="url(#paint0_linear_74_10533)"/>
<path d="M151.163 4.58594L195.471 29.8089V80.2547L151.163 105.478L106.855 80.2547V29.8089L151.163 4.58594Z" fill="#B70849"/>
<path d="M248.837 4.58594L293.145 29.8089V80.2547L248.837 105.478L204.529 80.2547V29.8089L248.837 4.58594Z" fill="#662DFF"/>
<path d="M346.512 0L390.82 25.2229V75.6688L346.512 100.892L302.203 75.6688V25.2229L346.512 0Z" fill="url(#paint1_linear_74_10533)"/>
<path d="M348.837 174.268L393.145 199.491V249.936L348.837 275.159L304.529 249.936V199.491L348.837 174.268Z" fill="url(#paint2_linear_74_10533)"/>
<path d="M51.1628 174.268L95.4711 199.491V249.936L51.1628 275.159L6.85452 249.936V199.491L51.1628 174.268Z" fill="url(#paint3_linear_74_10533)"/>
<path d="M51.1628 6.87891L95.4711 32.1018V82.5477L51.1628 107.771L6.85452 82.5477V32.1018L51.1628 6.87891Z" fill="url(#paint4_linear_74_10533)"/>
<path d="M253.488 174.268L297.797 199.491V249.936L253.488 275.159L209.18 249.936V199.491L253.488 174.268Z" fill="#662DFF"/>
<path d="M153.488 174.268L197.797 199.491V249.936L153.488 275.159L109.18 249.936V199.491L153.488 174.268Z" fill="#B70849"/>
<path d="M302.325 89.4269L346.634 114.65V165.096L302.325 190.319L258.017 165.096V114.65L302.325 89.4269Z" fill="url(#paint5_linear_74_10533)"/>
<path d="M102.326 259.108L146.634 284.331V334.777L102.326 360L58.0174 334.777V284.331L102.326 259.108Z" fill="url(#paint6_linear_74_10533)"/>
<path d="M248.303 115.513V166.525L203.488 192.035L158.674 166.525V115.513L203.488 90.0021L248.303 115.513Z" stroke="#12B0CD"/>
</g>
<defs>
<linearGradient id="paint0_linear_74_10533" x1="66.2791" y1="111.21" x2="131.707" y2="171.748" gradientUnits="userSpaceOnUse">
<stop stop-color="#B70849"/>
<stop offset="1" stop-color="#662DFF"/>
</linearGradient>
<linearGradient id="paint1_linear_74_10533" x1="310.465" y1="21.7834" x2="375.893" y2="82.3207" gradientUnits="userSpaceOnUse">
<stop stop-color="#B70849"/>
<stop offset="1" stop-color="#662DFF"/>
</linearGradient>
<linearGradient id="paint2_linear_74_10533" x1="312.791" y1="196.051" x2="378.219" y2="256.588" gradientUnits="userSpaceOnUse">
<stop stop-color="#B70849"/>
<stop offset="1" stop-color="#662DFF"/>
</linearGradient>
<linearGradient id="paint3_linear_74_10533" x1="15.1163" y1="196.051" x2="80.5446" y2="256.588" gradientUnits="userSpaceOnUse">
<stop stop-color="#B70849"/>
<stop offset="1" stop-color="#662DFF"/>
</linearGradient>
<linearGradient id="paint4_linear_74_10533" x1="15.1163" y1="28.6623" x2="80.5446" y2="89.1996" gradientUnits="userSpaceOnUse">
<stop stop-color="#B70849"/>
<stop offset="1" stop-color="#662DFF"/>
</linearGradient>
<linearGradient id="paint5_linear_74_10533" x1="266.279" y1="111.21" x2="331.707" y2="171.748" gradientUnits="userSpaceOnUse">
<stop stop-color="#B70849"/>
<stop offset="1" stop-color="#662DFF"/>
</linearGradient>
<linearGradient id="paint6_linear_74_10533" x1="66.2791" y1="280.892" x2="131.707" y2="341.429" gradientUnits="userSpaceOnUse">
<stop stop-color="#B70849"/>
<stop offset="1" stop-color="#662DFF"/>
</linearGradient>
</defs>
</svg>
