<svg width="22" height="21" viewBox="0 0 22 21" fill="none" xmlns="http://www.w3.org/2000/svg">
<path d="M16.125 7.33337C16.125 5.97414 15.585 4.67058 14.6239 3.70945C13.6628 2.74833 12.3592 2.20837 11 2.20837C9.64077 2.20837 8.3372 2.74833 7.37608 3.70945C6.41495 4.67058 5.875 5.97414 5.875 7.33337C5.875 13.3125 3.3125 15.0209 3.3125 15.0209H18.6875C18.6875 15.0209 16.125 13.3125 16.125 7.33337Z" stroke="white" stroke-width="2" stroke-linecap="round" stroke-linejoin="round"/>
<path d="M12.4779 18.4375C12.3277 18.6964 12.1122 18.9113 11.8528 19.0606C11.5935 19.21 11.2995 19.2886 11.0002 19.2886C10.7009 19.2886 10.4069 19.21 10.1475 19.0606C9.88818 18.9113 9.67263 18.6964 9.52246 18.4375" stroke="white" stroke-width="2" stroke-linecap="round" stroke-linejoin="round"/>
</svg>
