<svg width="22" height="21" viewBox="0 0 22 21" fill="none" xmlns="http://www.w3.org/2000/svg">
<path d="M12.2917 1.5H5.45833C5.00526 1.5 4.57073 1.67998 4.25036 2.00036C3.92998 2.32073 3.75 2.75526 3.75 3.20833V16.875C3.75 17.3281 3.92998 17.7626 4.25036 18.083C4.57073 18.4033 5.00526 18.5833 5.45833 18.5833H15.7083C16.1614 18.5833 16.5959 18.4033 16.9163 18.083C17.2367 17.7626 17.4167 17.3281 17.4167 16.875V6.625M12.2917 1.5L17.4167 6.625M12.2917 1.5L12.2917 6.625H17.4167M14 10.8958H7.16667M14 14.3125H7.16667M8.875 7.47917H7.16667" stroke="white" stroke-width="2" stroke-linecap="round" stroke-linejoin="round"/>
</svg>
