<svg width="22" height="21" viewBox="0 0 22 21" fill="none" xmlns="http://www.w3.org/2000/svg">
<path d="M3.54312 6.44512L11 10.7587L18.4569 6.44512M11 19.3601V10.7501M18.6875 14.1668V7.33345C18.6872 7.03388 18.6081 6.73964 18.4582 6.48028C18.3083 6.22091 18.0928 6.00553 17.8333 5.85574L11.8542 2.43908C11.5945 2.28914 11.2999 2.21021 11 2.21021C10.7001 2.21021 10.4055 2.28914 10.1458 2.43908L4.16667 5.85574C3.90722 6.00553 3.69173 6.22091 3.54181 6.48028C3.39189 6.73964 3.31281 7.03388 3.3125 7.33345V14.1668C3.31281 14.4664 3.39189 14.7606 3.54181 15.02C3.69173 15.2793 3.90722 15.4947 4.16667 15.6445L10.1458 19.0612C10.4055 19.2111 10.7001 19.29 11 19.29C11.2999 19.29 11.5945 19.2111 11.8542 19.0612L17.8333 15.6445C18.0928 15.4947 18.3083 15.2793 18.4582 15.02C18.6081 14.7606 18.6872 14.4664 18.6875 14.1668Z" stroke="white" stroke-width="2" stroke-linecap="round" stroke-linejoin="round"/>
</svg>
