<svg width="22" height="21" viewBox="0 0 22 21" fill="none" xmlns="http://www.w3.org/2000/svg">
<g clip-path="url(#clip0_966_1846)">
<path d="M11 13.3125C12.4152 13.3125 13.5625 12.1652 13.5625 10.75C13.5625 9.33477 12.4152 8.1875 11 8.1875C9.58477 8.1875 8.4375 9.33477 8.4375 10.75C8.4375 12.1652 9.58477 13.3125 11 13.3125Z" stroke="white" stroke-width="2" stroke-linecap="round" stroke-linejoin="round"/>
<path d="M17.3212 13.3125C17.2075 13.5701 17.1735 13.8559 17.2238 14.133C17.274 14.41 17.4061 14.6657 17.603 14.867L17.6543 14.9183C17.8131 15.0769 17.9391 15.2654 18.0251 15.4727C18.1111 15.6801 18.1553 15.9024 18.1553 16.1269C18.1553 16.3514 18.1111 16.5737 18.0251 16.7811C17.9391 16.9885 17.8131 17.1769 17.6543 17.3356C17.4956 17.4944 17.3072 17.6204 17.0998 17.7064C16.8924 17.7924 16.6701 17.8366 16.4456 17.8366C16.2211 17.8366 15.9988 17.7924 15.7914 17.7064C15.5841 17.6204 15.3956 17.4944 15.237 17.3356L15.1857 17.2843C14.9844 17.0874 14.7287 16.9553 14.4517 16.9051C14.1746 16.8548 13.8888 16.8888 13.6312 17.0025C13.3785 17.1107 13.1631 17.2905 13.0113 17.5197C12.8595 17.7489 12.7781 18.0174 12.777 18.2923V18.4375C12.777 18.8905 12.597 19.3251 12.2766 19.6454C11.9563 19.9658 11.5217 20.1458 11.0687 20.1458C10.6156 20.1458 10.1811 19.9658 9.86068 19.6454C9.54031 19.3251 9.36033 18.8905 9.36033 18.4375V18.3606C9.35371 18.0779 9.2622 17.8037 9.09768 17.5736C8.93316 17.3436 8.70324 17.1684 8.43783 17.0708C8.18019 16.9571 7.89441 16.9232 7.61732 16.9734C7.34024 17.0237 7.08455 17.1557 6.88324 17.3527L6.83199 17.4039C6.67333 17.5628 6.48492 17.6888 6.27754 17.7747C6.07015 17.8607 5.84785 17.9049 5.62335 17.9049C5.39884 17.9049 5.17654 17.8607 4.96916 17.7747C4.76177 17.6888 4.57336 17.5628 4.4147 17.4039C4.25587 17.2453 4.12986 17.0568 4.04389 16.8495C3.95792 16.6421 3.91367 16.4198 3.91367 16.1953C3.91367 15.9708 3.95792 15.7485 4.04389 15.5411C4.12986 15.3337 4.25587 15.1453 4.4147 14.9866L4.46595 14.9354C4.66287 14.7341 4.79496 14.4784 4.8452 14.2013C4.89545 13.9242 4.86153 13.6384 4.74783 13.3808C4.63955 13.1282 4.45976 12.9127 4.2306 12.7609C4.00143 12.6092 3.73289 12.5277 3.45803 12.5266H3.31283C2.85975 12.5266 2.42523 12.3466 2.10485 12.0263C1.78448 11.7059 1.60449 11.2714 1.60449 10.8183C1.60449 10.3652 1.78448 9.93069 2.10485 9.61032C2.42523 9.28994 2.85975 9.10996 3.31283 9.10996H3.3897C3.67242 9.10335 3.94662 9.01183 4.17664 8.84731C4.40667 8.68279 4.58187 8.45288 4.67949 8.18746C4.79319 7.92983 4.82711 7.64404 4.77687 7.36696C4.72663 7.08987 4.59453 6.83418 4.39762 6.63288L4.34637 6.58163C4.18753 6.42297 4.06153 6.23456 3.97556 6.02717C3.88959 5.81978 3.84534 5.59748 3.84534 5.37298C3.84534 5.14848 3.88959 4.92618 3.97556 4.71879C4.06153 4.5114 4.18753 4.32299 4.34637 4.16433C4.50503 4.0055 4.69343 3.87949 4.90082 3.79352C5.10821 3.70755 5.33051 3.6633 5.55501 3.6633C5.77951 3.6633 6.00181 3.70755 6.2092 3.79352C6.41659 3.87949 6.605 4.0055 6.76366 4.16433L6.81491 4.21558C7.01622 4.4125 7.2719 4.5446 7.54899 4.59484C7.82608 4.64508 8.11186 4.61116 8.36949 4.49746H8.43783C8.69046 4.38918 8.90592 4.2094 9.05769 3.98023C9.20945 3.75107 9.2909 3.48253 9.29199 3.20767V3.06246C9.29199 2.60938 9.47198 2.17486 9.79235 1.85449C10.1127 1.53411 10.5472 1.35413 11.0003 1.35413C11.4534 1.35413 11.8879 1.53411 12.2083 1.85449C12.5287 2.17486 12.7087 2.60938 12.7087 3.06246V3.13933C12.7098 3.41419 12.7912 3.68273 12.943 3.9119C13.0947 4.14106 13.3102 4.32085 13.5628 4.42913C13.8205 4.54283 14.1062 4.57675 14.3833 4.5265C14.6604 4.47626 14.9161 4.34417 15.1174 4.14725L15.1687 4.096C15.3273 3.93717 15.5157 3.81116 15.7231 3.72519C15.9305 3.63922 16.1528 3.59497 16.3773 3.59497C16.6018 3.59497 16.8241 3.63922 17.0315 3.72519C17.2389 3.81116 17.4273 3.93717 17.5859 4.096C17.7448 4.25466 17.8708 4.44307 17.9568 4.65046C18.0427 4.85785 18.087 5.08015 18.087 5.30465C18.087 5.52915 18.0427 5.75145 17.9568 5.95884C17.8708 6.16622 17.7448 6.35463 17.5859 6.51329L17.5347 6.56454C17.3378 6.76585 17.2057 7.02154 17.1554 7.29862C17.1052 7.57571 17.1391 7.8615 17.2528 8.11913V8.18746C17.3611 8.4401 17.5409 8.65556 17.7701 8.80732C17.9992 8.95909 18.2678 9.04053 18.5426 9.04163H18.6878C19.1409 9.04163 19.5754 9.22161 19.8958 9.54199C20.2162 9.86236 20.3962 10.2969 20.3962 10.75C20.3962 11.203 20.2162 11.6376 19.8958 11.9579C19.5754 12.2783 19.1409 12.4583 18.6878 12.4583H18.6109C18.3361 12.4594 18.0676 12.5408 17.8384 12.6926C17.6092 12.8444 17.4294 13.0598 17.3212 13.3125V13.3125Z" stroke="white" stroke-width="2" stroke-linecap="round" stroke-linejoin="round"/>
</g>
<defs>
<clipPath id="clip0_966_1846">
<rect width="20.5" height="20.5" fill="white" transform="translate(0.75 0.5)"/>
</clipPath>
</defs>
</svg>
