<svg width="22" height="21" viewBox="0 0 22 21" fill="none" xmlns="http://www.w3.org/2000/svg">
<path d="M8.51405 7.68754C8.71487 7.11667 9.11124 6.6353 9.63297 6.32868C10.1547 6.02205 10.7681 5.90997 11.3646 6.01227C11.961 6.11458 12.502 6.42468 12.8917 6.88764C13.2814 7.3506 13.4947 7.93655 13.4938 8.54171C13.4938 10.25 10.9313 11.1042 10.9313 11.1042M10.9997 14.5209H11.0082M19.5413 10.25C19.5413 14.9675 15.7171 18.7917 10.9997 18.7917C6.28224 18.7917 2.45801 14.9675 2.45801 10.25C2.45801 5.53261 6.28224 1.70837 10.9997 1.70837C15.7171 1.70837 19.5413 5.53261 19.5413 10.25Z" stroke="white" stroke-width="2" stroke-linecap="round" stroke-linejoin="round"/>
</svg>
