<svg width="21" height="21" viewBox="0 0 21 21" fill="none" xmlns="http://www.w3.org/2000/svg">
<path d="M10.7503 11.3333C11.2106 11.3333 11.5837 10.9602 11.5837 10.5C11.5837 10.0397 11.2106 9.66663 10.7503 9.66663C10.2901 9.66663 9.91699 10.0397 9.91699 10.5C9.91699 10.9602 10.2901 11.3333 10.7503 11.3333Z" fill="#808080" stroke="#808080" stroke-width="2" stroke-linecap="round" stroke-linejoin="round"/>
<path d="M10.7503 5.50004C11.2106 5.50004 11.5837 5.12694 11.5837 4.66671C11.5837 4.20647 11.2106 3.83337 10.7503 3.83337C10.2901 3.83337 9.91699 4.20647 9.91699 4.66671C9.91699 5.12694 10.2901 5.50004 10.7503 5.50004Z" fill="#808080" stroke="#808080" stroke-width="2" stroke-linecap="round" stroke-linejoin="round"/>
<path d="M10.7503 17.1667C11.2106 17.1667 11.5837 16.7936 11.5837 16.3333C11.5837 15.8731 11.2106 15.5 10.7503 15.5C10.2901 15.5 9.91699 15.8731 9.91699 16.3333C9.91699 16.7936 10.2901 17.1667 10.7503 17.1667Z" fill="#808080" stroke="#808080" stroke-width="2" stroke-linecap="round" stroke-linejoin="round"/>
</svg>
